<?xml version="1.0" encoding="iso-8859-1"?>
<!-- Uploaded to: SVG Repo, www.svgrepo.com, Generator: SVG Repo Mixer Tools -->
<svg fill="#000000" version="1.1" id="Layer_1" xmlns="http://www.w3.org/2000/svg" xmlns:xlink="http://www.w3.org/1999/xlink" 
	 viewBox="0 0 290.625 290.625" xml:space="preserve">
<g>
	<g>
		<g>
			<path d="M229.688,262.5v-57.314l-14.063,2.897v-54.488l-14.063,2.972v-49.941l-14.063,3.197V69.352l-9.375,1.758V36.656
				l-9.375,1.561V18.75h-9.375V0H131.25v18.75h-9.375v27.277l-9.375,1.561v35.827l-9.375,1.758V129l-14.063,3.197v48.145L75,183.314
				v53.723l-14.063,2.897V262.5H0v28.125h290.625V262.5H229.688z M140.625,9.375H150v9.375h-9.375V9.375z M131.25,28.125h28.125
				v11.653L150,41.339v-8.527h-9.375v10.092l-9.375,1.561V28.125z M121.875,55.533l46.875-7.814v25.148l-46.875,8.789V55.533z
				 M112.5,92.953l65.625-12.305v31.303L112.5,126.867V92.953z M98.437,139.678L98.437,139.678l93.751-21.305v23.18l-80.705,17.934
				l2.034,9.155l78.67-17.484v7.392l-93.75,19.809V139.678z M84.375,190.913L206.25,165.16v27.909L97.481,215.728l1.912,9.173
				l106.856-22.266v7.373L84.375,235.102V190.913z M70.313,247.57l150-30.886V262.5h-150V247.57z M281.25,281.25H9.375v-9.375
				H281.25V281.25z"/>
			<rect x="201.563" y="248.438" width="9.375" height="9.375"/>
			<rect x="201.563" y="229.688" width="9.375" height="9.375"/>
			<rect x="187.5" y="178.125" width="9.375" height="9.375"/>
		</g>
	</g>
</g>
</svg>